<mxfile host="app.diagrams.net" agent="Mozilla/5.0 (Windows NT 10.0; Win64; x64) AppleWebKit/537.36 (KHTML, like Gecko) Chrome/130.0.0.0 Safari/537.36" version="24.7.17">
  <diagram name="Page-1" id="fuYgEnnyyk1HbqFeiEho">
    <mxGraphModel dx="1747" dy="650" grid="1" gridSize="10" guides="1" tooltips="1" connect="1" arrows="1" fold="1" page="1" pageScale="1" pageWidth="850" pageHeight="1100" math="0" shadow="0">
      <root>
        <mxCell id="0" />
        <mxCell id="1" parent="0" />
        <mxCell id="Q1BsjIU1wa94I-NG6jPB-1" value="&lt;h1&gt;Household&lt;/h1&gt;" style="rounded=0;whiteSpace=wrap;html=1;verticalAlign=top;labelBackgroundColor=none;fillColor=#E6FFCC;" vertex="1" parent="1">
          <mxGeometry x="200" y="180" width="510" height="290" as="geometry" />
        </mxCell>
        <mxCell id="Q1BsjIU1wa94I-NG6jPB-3" value="Participant1" style="shape=umlActor;verticalLabelPosition=bottom;verticalAlign=top;html=1;outlineConnect=0;" vertex="1" parent="1">
          <mxGeometry x="280" y="340" width="30" height="60" as="geometry" />
        </mxCell>
        <mxCell id="Q1BsjIU1wa94I-NG6jPB-4" value="Participant2" style="shape=umlActor;verticalLabelPosition=bottom;verticalAlign=top;html=1;outlineConnect=0;" vertex="1" parent="1">
          <mxGeometry x="370" y="340" width="30" height="60" as="geometry" />
        </mxCell>
        <mxCell id="Q1BsjIU1wa94I-NG6jPB-5" value="Participant3" style="shape=umlActor;verticalLabelPosition=bottom;verticalAlign=top;html=1;outlineConnect=0;" vertex="1" parent="1">
          <mxGeometry x="460" y="340" width="30" height="60" as="geometry" />
        </mxCell>
        <mxCell id="Q1BsjIU1wa94I-NG6jPB-7" value="&lt;h1&gt;Tasks&lt;/h1&gt;" style="rounded=0;whiteSpace=wrap;html=1;verticalAlign=top;labelBackgroundColor=none;fillColor=#E6FFCC;" vertex="1" parent="1">
          <mxGeometry x="880" y="180" width="510" height="290" as="geometry" />
        </mxCell>
        <mxCell id="Q1BsjIU1wa94I-NG6jPB-8" value="Task 1" style="ellipse;whiteSpace=wrap;html=1;aspect=fixed;" vertex="1" parent="1">
          <mxGeometry x="950" y="330" width="80" height="80" as="geometry" />
        </mxCell>
        <mxCell id="Q1BsjIU1wa94I-NG6jPB-9" value="Task2" style="ellipse;whiteSpace=wrap;html=1;aspect=fixed;" vertex="1" parent="1">
          <mxGeometry x="1080" y="330" width="80" height="80" as="geometry" />
        </mxCell>
        <mxCell id="Q1BsjIU1wa94I-NG6jPB-11" value="&lt;h1&gt;Taskboard&lt;/h1&gt;" style="rounded=0;whiteSpace=wrap;html=1;verticalAlign=top;labelBackgroundColor=none;fillColor=#E6FFCC;" vertex="1" parent="1">
          <mxGeometry x="540" y="510" width="510" height="290" as="geometry" />
        </mxCell>
        <mxCell id="Q1BsjIU1wa94I-NG6jPB-12" value="Actions" style="shape=note;whiteSpace=wrap;html=1;backgroundOutline=1;darkOpacity=0.05;" vertex="1" parent="1">
          <mxGeometry x="750" y="590" width="80" height="100" as="geometry" />
        </mxCell>
        <mxCell id="Q1BsjIU1wa94I-NG6jPB-13" style="edgeStyle=orthogonalEdgeStyle;rounded=0;orthogonalLoop=1;jettySize=auto;html=1;entryX=0;entryY=0.5;entryDx=0;entryDy=0;entryPerimeter=0;" edge="1" parent="1" source="Q1BsjIU1wa94I-NG6jPB-5" target="Q1BsjIU1wa94I-NG6jPB-12">
          <mxGeometry relative="1" as="geometry" />
        </mxCell>
        <mxCell id="Q1BsjIU1wa94I-NG6jPB-14" style="edgeStyle=orthogonalEdgeStyle;rounded=0;orthogonalLoop=1;jettySize=auto;html=1;entryX=1;entryY=0.6;entryDx=0;entryDy=0;entryPerimeter=0;" edge="1" parent="1" source="Q1BsjIU1wa94I-NG6jPB-8" target="Q1BsjIU1wa94I-NG6jPB-12">
          <mxGeometry relative="1" as="geometry" />
        </mxCell>
      </root>
    </mxGraphModel>
  </diagram>
</mxfile>
